<svg width="34" height="34" viewBox="0 0 34 34" fill="none" xmlns="http://www.w3.org/2000/svg">
<g clip-path="url(#clip0)">
<path d="M17.001 34C12.3528 34 8.52559 30.4277 8.11613 25.8839C3.57235 25.4765 0 21.6472 0 17.001C0 12.3528 3.57235 8.5235 8.11613 8.11613C8.5235 3.57235 12.3528 0 17.001 0C21.6493 0 25.4765 3.57235 25.886 8.11613C30.4297 8.5235 34.0021 12.3528 34.0021 17.001C34.0021 21.6493 30.4297 25.4765 25.886 25.886C25.4765 30.4277 21.6472 34 17.001 34ZM8.92043 9.9608C5.03889 9.9608 1.88018 13.1174 1.88018 17.001C1.88018 20.8826 5.03889 24.0413 8.92043 24.0413H9.9608V25.0817C9.9608 28.9632 13.1195 32.1219 17.001 32.1219C20.8826 32.1219 24.0413 28.9632 24.0413 25.0817V24.0413H25.0817C28.9632 24.0413 32.1219 20.8826 32.1219 17.001C32.1219 13.1195 28.9632 9.9608 25.0817 9.9608H24.0413V8.92043C24.0413 5.03889 20.8826 1.88018 17.001 1.88018C13.1195 1.88018 9.9608 5.03889 9.9608 8.92043V9.9608H8.92043V9.9608Z" fill="#F44172"/>
<path d="M17.001 21.6285C19.5566 21.6285 21.6283 19.5567 21.6283 17.0011C21.6283 14.4455 19.5566 12.3738 17.001 12.3738C14.4454 12.3738 12.3737 14.4455 12.3737 17.0011C12.3737 19.5567 14.4454 21.6285 17.001 21.6285Z" fill="#F44172"/>
</g>
<defs>
<clipPath id="clip0">
<rect width="34" height="34" fill="white"/>
</clipPath>
</defs>
</svg>
